<?xml version="1.0" encoding="UTF-8" standalone="no"?>
<!-- Created with Inkscape (http://www.inkscape.org/) -->

<svg
   width="100.8639mm"
   height="14.059551mm"
   viewBox="0 0 100.8639 14.059551"
   version="1.1"
   id="svg1"
   xmlns="http://www.w3.org/2000/svg"
   xmlns:svg="http://www.w3.org/2000/svg">
  <defs
     id="defs1" />
  <g
     id="layer1"
     style="fill:#00ff00;fill-opacity:0"
     transform="translate(-44.272214,-80.726298)">
    <g
       id="layer2">
      <g
         id="g6">
        <path
           d="m 48.733766,90.959282 -4.261552,-2.568221 v -1.255888 l 4.261552,-2.582331 0.649111,1.298221 -3.287887,1.904999 3.287887,1.919109 z m 5.672663,1.199443 q -1.255888,0 -2.102554,-0.578555 -0.832555,-0.578555 -1.269999,-1.707443 -0.423333,-1.142999 -0.423333,-2.808109 0,-1.679221 0.437444,-2.808109 0.437445,-1.128888 1.284111,-1.679221 0.860777,-0.564444 2.130776,-0.564444 0.409222,0 0.77611,0.05644 0.381,0.05644 0.719666,0.169334 0.338667,0.09878 0.592667,0.253999 l -0.522111,1.467555 q -0.310444,-0.197556 -0.705555,-0.310444 -0.381,-0.112889 -0.874888,-0.112889 -0.705555,0 -1.143,0.352777 -0.437444,0.352778 -0.634999,1.128888 -0.197555,0.776111 -0.197555,2.04611 0,1.269999 0.197555,2.060221 0.197555,0.77611 0.634999,1.142999 0.451556,0.352777 1.171222,0.352777 0.09878,0 0.197555,-0.01411 0.09878,-0.01411 0.197556,-0.04233 v -3.654775 h 1.749776 v 4.840107 q -0.08467,0.07056 -0.691444,0.239889 -0.592666,0.169333 -1.523999,0.169333 z m 6.886229,-0.04233 q -0.931332,0 -1.552221,-0.338667 -0.606777,-0.352777 -0.917221,-1.058332 -0.296333,-0.705555 -0.296333,-1.763888 v -4.459107 h 1.707443 v 4.374441 q 0,0.64911 0.09878,1.044221 0.112889,0.395111 0.352778,0.578555 0.254,0.169333 0.663222,0.169333 0.127,0 0.268111,-0.01411 0.155222,-0.02822 0.296333,-0.07055 v -6.081884 h 1.693332 v 7.30955 q -0.564444,0.141111 -1.142999,0.225777 -0.564444,0.08467 -1.171222,0.08467 z m 5.588001,0.04233 q -0.536221,0 -1.015999,-0.141111 -0.479777,-0.127 -0.747888,-0.268111 l 0.324555,-1.340554 q 0.296333,0.169333 0.649111,0.268111 0.366888,0.09878 0.663222,0.09878 0.451555,0 0.677332,-0.211666 0.225778,-0.225778 0.225778,-0.550333 0,-0.268111 -0.112889,-0.465666 -0.09878,-0.197556 -0.352777,-0.395111 -0.239889,-0.211667 -0.691444,-0.479778 -0.451556,-0.282222 -0.747889,-0.578555 -0.282222,-0.310444 -0.409222,-0.677333 -0.126999,-0.366888 -0.126999,-0.846666 0,-0.64911 0.282222,-1.15711 0.296333,-0.522111 0.832555,-0.804333 0.536221,-0.296333 1.255887,-0.296333 0.493889,0 0.903111,0.09878 0.423333,0.09878 0.620888,0.197555 l -0.268111,1.312333 q -0.310444,-0.112889 -0.592666,-0.169333 -0.268111,-0.05644 -0.522111,-0.05644 -0.423333,0 -0.64911,0.183444 -0.211667,0.183445 -0.211667,0.522111 0,0.254 0.112889,0.451555 0.112889,0.183445 0.366889,0.381 0.254,0.197555 0.663221,0.479778 0.437445,0.282222 0.733778,0.606777 0.310444,0.310444 0.465666,0.691444 0.155222,0.380999 0.155222,0.846666 0,0.691444 -0.310444,1.213554 -0.310444,0.508 -0.874888,0.804333 -0.550333,0.282222 -1.298222,0.282222 z m 6.067761,-0.01411 q -0.762,0 -1.269999,-0.310444 -0.493889,-0.310444 -0.733777,-0.945444 -0.239889,-0.634999 -0.239889,-1.594554 v -6.646328 l 1.707443,-0.282222 v 2.130776 h 1.820332 v 1.41111 h -1.820332 v 3.485441 q 0,0.437445 0.09878,0.719667 0.09878,0.282222 0.282222,0.423333 0.197555,0.126999 0.479777,0.126999 0.254,0 0.451555,-0.04233 0.197556,-0.05644 0.409222,-0.169333 l 0.254,1.326443 q -0.239889,0.169334 -0.649111,0.268111 -0.39511,0.09878 -0.790221,0.09878 z m 4.720154,-0.04233 q -0.818444,0 -1.396999,-0.268111 -0.578555,-0.268111 -0.874888,-0.790222 -0.296334,-0.536222 -0.296334,-1.298221 0,-0.747888 0.282222,-1.255888 0.296334,-0.508 0.832555,-0.77611 0.536222,-0.268111 1.255888,-0.268111 0.197556,0 0.409222,0.01411 0.225778,0.01411 0.409222,0.05644 v -0.479777 q 0,-0.465667 -0.141111,-0.747889 -0.141111,-0.282222 -0.423333,-0.39511 -0.282222,-0.127 -0.719666,-0.127 -0.268111,0 -0.550333,0.04233 -0.282222,0.04233 -0.606777,0.155222 l -0.239889,-1.368777 q 0.338666,-0.112888 0.790222,-0.197555 0.465666,-0.08467 0.90311,-0.08467 0.790222,0 1.382888,0.296333 0.592666,0.282222 0.931332,0.903111 0.338667,0.606777 0.338667,1.580443 v 4.698996 q -0.578555,0.155223 -1.185333,0.225778 -0.592666,0.08467 -1.100665,0.08467 z m 0.08467,-1.28411 q 0.155222,0 0.296333,-0.01411 0.141111,-0.02822 0.239889,-0.04233 v -2.031998 q -0.127,-0.04233 -0.268111,-0.05644 -0.141111,-0.02822 -0.282222,-0.02822 -0.324555,0 -0.550333,0.127 -0.211666,0.112889 -0.324555,0.366889 -0.09878,0.239888 -0.09878,0.606777 0,0.536222 0.239889,0.804333 0.254,0.268111 0.747888,0.268111 z m 5.115275,1.15711 q -0.225778,-0.719666 -0.493889,-1.566332 -0.254,-0.846666 -0.507999,-1.806221 -0.239889,-0.973666 -0.493889,-2.003776 -0.239889,-1.030111 -0.437444,-2.102554 h 1.79211 q 0.112888,0.790221 0.268111,1.749776 0.169333,0.945444 0.366888,1.890888 0.211667,0.945443 0.395111,1.735665 0.155222,-0.592666 0.296333,-1.269999 0.155222,-0.691444 0.296333,-1.41111 0.155222,-0.719666 0.268111,-1.396999 0.112889,-0.691444 0.183444,-1.298221 h 1.735666 q -0.197556,1.072443 -0.451556,2.102554 -0.239888,1.03011 -0.493888,2.003776 -0.239889,0.959555 -0.508,1.806221 -0.253999,0.846666 -0.479777,1.566332 z m 7.10491,0.183444 q -0.860777,0 -1.481666,-0.451555 -0.606777,-0.465666 -0.931332,-1.340555 -0.324555,-0.888999 -0.324555,-2.130776 0,-1.255888 0.310444,-2.116665 0.324555,-0.874888 0.945443,-1.340554 0.620889,-0.465667 1.481666,-0.465667 0.874888,0 1.481666,0.465667 0.620888,0.451555 0.945443,1.326443 0.324556,0.874888 0.324556,2.130776 0,1.241777 -0.324556,2.130776 -0.324555,0.874889 -0.931332,1.340555 -0.606778,0.451555 -1.495777,0.451555 z m 0,-1.467554 q 0.352777,0 0.550333,-0.254 0.211666,-0.254 0.310444,-0.790222 0.112889,-0.550333 0.112889,-1.41111 0,-0.860777 -0.112889,-1.396999 -0.09878,-0.550333 -0.310444,-0.804332 -0.211667,-0.254 -0.550333,-0.254 -0.324555,0 -0.550333,0.254 -0.211666,0.253999 -0.310444,0.804332 -0.09878,0.536222 -0.09878,1.396999 0,0.860777 0.09878,1.41111 0.09878,0.536222 0.310444,0.790222 0.225778,0.254 0.550333,0.254 z m 10.061201,1.467554 q -1.227659,0 -2.074325,-0.578555 -0.846666,-0.578555 -1.28411,-1.707443 -0.423333,-1.128888 -0.423333,-2.793998 0,-1.269999 0.239888,-2.215443 0.239889,-0.945443 0.691444,-1.580443 0.465667,-0.634999 1.157111,-0.945444 0.705555,-0.324555 1.636887,-0.324555 0.395108,0 0.761998,0.05644 0.381,0.05644 0.70555,0.169334 0.33867,0.09878 0.59267,0.253999 l -0.508,1.467555 q -0.31044,-0.197556 -0.70556,-0.310444 -0.39511,-0.112889 -0.846658,-0.112889 -0.677333,0 -1.086554,0.352777 -0.409222,0.352778 -0.592667,1.128888 -0.183444,0.776111 -0.183444,2.060221 0,1.255888 0.211667,2.04611 0.225777,0.77611 0.691443,1.142999 0.465667,0.352777 1.213553,0.352777 0.43744,0 0.80433,-0.08467 0.36689,-0.09878 0.69144,-0.282222 l 0.46567,1.41111 q -0.39511,0.239888 -0.94544,0.366888 -0.55034,0.127 -1.21356,0.127 z m 3.33021,-0.183444 V 81.307289 l 1.70744,-0.282222 v 3.471331 q 0.19756,-0.07056 0.40923,-0.09878 0.22577,-0.04233 0.46566,-0.04233 0.79022,0 1.34056,0.380999 0.56444,0.381 0.86077,1.100666 0.29634,0.705555 0.29634,1.693332 v 4.444997 h -1.70745 v -4.36033 q 0,-0.663222 -0.0988,-1.044222 -0.0988,-0.39511 -0.35278,-0.578555 -0.23989,-0.183444 -0.635,-0.183444 -0.0847,0 -0.18344,0.01411 -0.0988,0.01411 -0.19756,0.02822 -0.0988,0.01411 -0.19756,0.05645 v 6.067773 z m 9.08754,0.127 q -0.81844,0 -1.397,-0.268111 -0.57855,-0.268111 -0.87488,-0.790222 -0.29634,-0.536222 -0.29634,-1.298221 0,-0.747888 0.28223,-1.255888 0.29633,-0.508 0.83255,-0.77611 0.53622,-0.268111 1.25589,-0.268111 0.19755,0 0.40922,0.01411 0.22578,0.01411 0.40922,0.05644 v -0.479777 q 0,-0.465667 -0.14111,-0.747889 -0.14111,-0.282222 -0.42333,-0.39511 -0.28222,-0.127 -0.71967,-0.127 -0.26811,0 -0.55033,0.04233 -0.28222,0.04233 -0.60678,0.155222 l -0.23989,-1.368777 q 0.33867,-0.112888 0.79022,-0.197555 0.46567,-0.08467 0.90311,-0.08467 0.79023,0 1.38289,0.296333 0.59267,0.282222 0.93134,0.903111 0.33866,0.606777 0.33866,1.580443 v 4.698996 q -0.57855,0.155223 -1.18533,0.225778 -0.59267,0.08467 -1.10067,0.08467 z m 0.0847,-1.28411 q 0.15522,0 0.29633,-0.01411 0.14111,-0.02822 0.23989,-0.04233 v -2.031998 q -0.127,-0.04233 -0.26811,-0.05644 -0.14111,-0.02822 -0.28222,-0.02822 -0.32456,0 -0.55033,0.127 -0.21167,0.112889 -0.32456,0.366889 -0.0988,0.239888 -0.0988,0.606777 0,0.536222 0.23989,0.804333 0.254,0.268111 0.74789,0.268111 z m 5.11527,1.15711 q -0.22577,-0.719666 -0.49388,-1.566332 -0.254,-0.846666 -0.508,-1.806221 -0.23989,-0.973666 -0.49389,-2.003776 -0.23989,-1.030111 -0.43745,-2.102554 h 1.79211 q 0.11289,0.790221 0.26811,1.749776 0.16934,0.945444 0.36689,1.890888 0.21167,0.945443 0.39511,1.735665 0.15523,-0.592666 0.29634,-1.269999 0.15522,-0.691444 0.29633,-1.41111 0.15522,-0.719666 0.26811,-1.396999 0.11289,-0.691444 0.18345,-1.298221 h 1.73566 q -0.19756,1.072443 -0.45155,2.102554 -0.23989,1.03011 -0.49389,2.003776 -0.23989,0.959555 -0.508,1.806221 -0.254,0.846666 -0.47978,1.566332 z m 7.40125,0.183444 q -0.95955,0 -1.651,-0.451555 -0.67733,-0.451555 -1.03011,-1.312332 -0.35277,-0.860778 -0.35277,-2.074332 0,-1.28411 0.32455,-2.17311 0.32456,-0.888999 0.93133,-1.354665 0.60678,-0.479778 1.41111,-0.479778 0.81845,0 1.35467,0.451556 0.55033,0.451555 0.83255,1.298221 0.29634,0.832555 0.29634,2.003776 0,0.197555 -0.0141,0.395111 0,0.183444 -0.0141,0.381 h -3.37255 q 0.0141,0.874888 0.40922,1.354665 0.39511,0.479778 1.18534,0.479778 0.36688,0 0.70555,-0.04233 0.35278,-0.05644 0.59267,-0.169333 l 0.19755,1.340555 q -0.39511,0.183444 -0.84666,0.26811 -0.43745,0.08467 -0.95956,0.08467 z m -1.29822,-4.529663 h 1.778 q -0.0141,-0.691444 -0.11289,-1.114777 -0.0988,-0.437444 -0.29633,-0.635 -0.19756,-0.197555 -0.47978,-0.197555 -0.29633,0 -0.49389,0.211667 -0.18344,0.211666 -0.28222,0.64911 -0.0988,0.423333 -0.11289,1.086555 z m 6.30766,4.529663 q -0.53622,0 -1.016,-0.141111 -0.47977,-0.127 -0.74788,-0.268111 l 0.32455,-1.340554 q 0.29633,0.169333 0.64911,0.268111 0.36689,0.09878 0.66322,0.09878 0.45156,0 0.67734,-0.211666 0.22577,-0.225778 0.22577,-0.550333 0,-0.268111 -0.11288,-0.465666 -0.0988,-0.197556 -0.35278,-0.395111 -0.23989,-0.211667 -0.69145,-0.479778 -0.45155,-0.282222 -0.74788,-0.578555 -0.28223,-0.310444 -0.40923,-0.677333 -0.127,-0.366888 -0.127,-0.846666 0,-0.64911 0.28223,-1.15711 0.29633,-0.522111 0.83255,-0.804333 0.53622,-0.296333 1.25589,-0.296333 0.49389,0 0.90311,0.09878 0.42333,0.09878 0.62089,0.197555 l -0.26811,1.312333 q -0.31045,-0.112889 -0.59267,-0.169333 -0.26811,-0.05644 -0.52211,-0.05644 -0.42333,0 -0.64911,0.183444 -0.21167,0.183445 -0.21167,0.522111 0,0.254 0.11289,0.451555 0.11289,0.183445 0.36689,0.381 0.254,0.197555 0.66322,0.479778 0.43745,0.282222 0.73378,0.606777 0.31044,0.310444 0.46566,0.691444 0.15523,0.380999 0.15523,0.846666 0,0.691444 -0.31045,1.213554 -0.31044,0.508 -0.87489,0.804333 -0.55033,0.282222 -1.29822,0.282222 z m 4.76954,2.427109 3.41488,-13.659545 h 1.55222 l -3.41488,13.659545 z m 5.84199,-3.626552 -0.66323,-1.284111 3.28789,-1.919109 -3.28789,-1.904999 0.66323,-1.298221 4.26155,2.582331 v 1.255888 z"
           id="text1"
           style="font-size:14.1111px;font-family:Ubuntu;-inkscape-font-specification:'Ubuntu, @wght=700,wdth=75';font-variation-settings:'wdth' 75, 'wght' 700;fill:#3c6ee6;fill-opacity:1;stroke:#283c5a;stroke-width:0.4"
           aria-label="&lt;Gustavo Chaves /&gt;" />
      </g>
    </g>
  </g>
</svg>
